<svg width="72" height="72" viewBox="0 0 72 72" fill="none" xmlns="http://www.w3.org/2000/svg">
<rect width="72" height="72" rx="16" fill="#3A5DD7"/>
<path d="M53.7445 45.8661C54.1369 42.7768 54.3333 39.4881 54.3333 36.0001C54.3333 32.3395 54.117 28.8984 53.6848 25.677C53.6355 25.3091 53.3488 25.0183 52.9817 24.9636C50.1618 24.5432 47.5565 24.3334 45.1667 24.3334C42.4372 24.3334 39.427 24.6071 36.137 25.1554C32.7604 25.7182 29.6595 26.0001 26.8333 26.0001C24.4795 26.0001 21.9352 25.8045 19.1999 25.4141C18.7306 25.3544 18.3135 25.6775 18.2555 26.134C17.8631 29.2234 17.6667 32.5121 17.6667 36.0001C17.6667 39.6606 17.883 43.1017 18.3152 46.3232C18.3645 46.691 18.6512 46.9819 19.0183 47.0366C21.8382 47.4569 24.4435 47.6667 26.8333 47.6667C29.5628 47.6667 32.573 47.3931 35.863 46.8448C39.2396 46.282 42.3405 46.0001 45.1667 46.0001C47.5205 46.0001 50.0648 46.1956 52.8001 46.5861C53.2694 46.6458 53.6865 46.3227 53.7445 45.8661ZM45.1667 47.6667C42.4372 47.6667 39.427 47.9404 36.137 48.4887C32.7604 49.0515 29.6595 49.3334 26.8333 49.3334C24.3574 49.3334 21.6707 49.117 18.7725 48.6851C17.6713 48.5209 16.8114 47.6483 16.6633 46.5448C16.221 43.2476 16 39.7327 16 36.0001C16 32.4437 16.2006 29.0851 16.6021 25.924C16.7761 24.5543 18.0275 23.585 19.3972 23.759C22.0957 24.1439 24.5618 24.3334 26.8333 24.3334C29.5628 24.3334 32.573 24.0598 35.863 23.5114C39.2396 22.9486 42.3405 22.6667 45.1667 22.6667C47.6426 22.6667 50.3293 22.8831 53.2275 23.3151C54.3287 23.4793 55.1886 24.3519 55.3367 25.4554C55.779 28.7526 56 32.2674 56 36.0001C56 39.5564 55.7994 42.9151 55.3979 46.0761C55.2239 47.4458 53.9725 48.4152 52.6028 48.2412C49.9043 47.8563 47.4382 47.6667 45.1667 47.6667ZM41.0489 36.0232C41.0489 33.2621 38.8103 31.0232 36.0489 31.0232C33.2876 31.0232 31.0489 33.2621 31.0489 36.0232C31.0489 38.7849 33.2872 41.0232 36.0489 41.0232C38.8106 41.0232 41.0489 38.7849 41.0489 36.0232ZM42.7156 36.0232C42.7156 39.7053 39.7311 42.6898 36.0489 42.6898C32.3667 42.6898 29.3823 39.7053 29.3823 36.0232C29.3823 32.3416 32.367 29.3565 36.0489 29.3565C39.7308 29.3565 42.7156 32.3416 42.7156 36.0232ZM22.7156 25.1898C22.7156 24.7296 23.0887 24.3565 23.5489 24.3565C24.0092 24.3565 24.3822 24.7296 24.3822 25.1898C24.3822 28.872 21.3978 31.8565 17.7156 31.8565C17.2553 31.8565 16.8822 31.4834 16.8822 31.0232C16.8822 30.5629 17.2553 30.1898 17.7156 30.1898C20.4773 30.1898 22.7156 27.9515 22.7156 25.1898ZM47.7156 24.3565C47.7156 23.8963 48.0887 23.5232 48.5489 23.5232C49.0092 23.5232 49.3822 23.8963 49.3822 24.3565C49.3822 27.1182 51.6205 29.3565 54.3822 29.3565C54.8425 29.3565 55.2156 29.7296 55.2156 30.1898C55.2156 30.6501 54.8425 31.0232 54.3822 31.0232C50.7001 31.0232 47.7156 28.0387 47.7156 24.3565ZM49.3822 46.8565C49.3822 47.3167 49.0092 47.6898 48.5489 47.6898C48.0887 47.6898 47.7156 47.3167 47.7156 46.8565C47.7156 43.1743 50.7001 40.1898 54.3822 40.1898C54.8425 40.1898 55.2156 40.5629 55.2156 41.0232C55.2156 41.4834 54.8425 41.8565 54.3822 41.8565C51.6205 41.8565 49.3822 44.0948 49.3822 46.8565ZM24.3822 47.6898C24.3822 48.1501 24.0092 48.5232 23.5489 48.5232C23.0887 48.5232 22.7156 48.1501 22.7156 47.6898C22.7156 44.9281 20.4773 42.6898 17.7156 42.6898C17.2553 42.6898 16.8822 42.3167 16.8822 41.8565C16.8822 41.3963 17.2553 41.0232 17.7156 41.0232C21.3978 41.0232 24.3822 44.0076 24.3822 47.6898Z" fill="white"/>
</svg>
