<svg width="72" height="72" viewBox="0 0 72 72" fill="none" xmlns="http://www.w3.org/2000/svg">
<rect width="72" height="72" rx="16" fill="#3A5DD7"/>
<path d="M32.6633 24.3334C32.2031 24.3315 31.8315 23.9569 31.8334 23.4967C31.8352 23.0365 32.2098 22.6649 32.6701 22.6668L35.2243 22.6771C43.0258 22.7089 49.3334 29.0422 49.3334 36.8437V47.6667C49.3334 48.127 48.9603 48.5001 48.5 48.5001C48.0398 48.5001 47.6667 48.127 47.6667 47.6667V36.8437C47.6667 29.96 42.1012 24.3718 35.2175 24.3438L32.6633 24.3334ZM39.3367 47.6668C39.797 47.6686 40.1686 48.0432 40.1667 48.5035C40.1648 48.9637 39.7902 49.3353 39.33 49.3334L36.7757 49.323C28.9742 49.2913 22.6667 42.958 22.6667 35.1565V23.5001C22.6667 23.0398 23.0398 22.6667 23.5 22.6667C23.9603 22.6667 24.3334 23.0398 24.3334 23.5001V35.1565C24.3334 42.0402 29.8988 47.6284 36.7825 47.6564L39.3367 47.6668ZM52.9119 43.7594C53.238 43.4347 53.7657 43.4357 54.0905 43.7618C54.4152 44.0879 54.4142 44.6155 54.0881 44.9403L50.5582 48.4561C49.4182 49.5915 47.5741 49.5893 46.4368 48.4512L42.9106 44.9225C42.5852 44.5969 42.5854 44.0693 42.911 43.7439C43.2365 43.4186 43.7642 43.4188 44.0895 43.7444L47.6158 47.2731C48.1032 47.7609 48.8935 47.7618 49.3821 47.2752L52.9119 43.7594ZM19.0895 28.2286C18.7642 28.5542 18.2365 28.5544 17.911 28.229C17.5854 27.9037 17.5852 27.3761 17.9106 27.0505L21.4368 23.5218C22.5741 22.3836 24.4182 22.3815 25.5582 23.5169L29.0881 27.0327C29.4142 27.3574 29.4152 27.8851 29.0905 28.2112C28.7657 28.5373 28.238 28.5383 27.9119 28.2135L24.3821 24.6978C23.8935 24.2112 23.1032 24.2121 22.6157 24.6998L19.0895 28.2286Z" fill="white"/>
</svg>
