<svg width="72" height="72" viewBox="0 0 72 72" fill="none" xmlns="http://www.w3.org/2000/svg">
<rect width="72" height="72" rx="16" fill="#3A5DD7"/>
<path d="M44.3333 37.6668C43.8731 37.6668 43.5 37.2937 43.5 36.8335C43.5 36.3733 43.8731 36.0002 44.3333 36.0002C46.6299 36.0002 48.9263 36.1863 51.222 36.5585C52.4986 36.7655 53.5404 37.6923 53.8945 38.9362L54.4126 40.7562C54.4311 40.8213 54.4477 40.887 54.4622 40.9532C54.849 42.7124 53.7027 44.4429 51.9614 44.9148C50.2883 45.3683 48.3972 45.7136 46.8862 45.8804C46.4287 45.9309 46.0169 45.601 45.9664 45.1435C45.916 44.6861 46.2459 44.2743 46.7033 44.2238C48.1322 44.0661 49.9392 43.7361 51.5254 43.3062C52.4355 43.0595 53.0236 42.1717 52.8344 41.311C52.8272 41.2779 52.8189 41.2451 52.8096 41.2125L52.2915 39.3925C52.1144 38.7706 51.5936 38.3072 50.9552 38.2037C48.7474 37.8457 46.5403 37.6668 44.3333 37.6668ZM41 29.3335C41 31.1715 42.4941 32.6668 44.3333 32.6668C46.1714 32.6668 47.6667 31.1727 47.6667 29.3335C47.6667 27.4955 46.1725 26.0002 44.3333 26.0002C42.4953 26.0002 41 27.4943 41 29.3335ZM39.3333 29.3335C39.3333 26.5735 41.5751 24.3335 44.3333 24.3335C47.0933 24.3335 49.3333 26.5753 49.3333 29.3335C49.3333 32.0934 47.0915 34.3335 44.3333 34.3335C41.5734 34.3335 39.3333 32.0917 39.3333 29.3335ZM31 47.6668C35.7646 47.6668 39.2217 47.2214 41.3401 46.3557C42.0792 46.0537 42.5003 45.2699 42.3441 44.4868L41.6962 41.2389C41.3333 39.4197 39.8114 38.0596 37.9631 37.9024C36.1195 37.7456 33.7975 37.6668 31 37.6668C28.2025 37.6668 25.8805 37.7456 24.0369 37.9024C22.1886 38.0596 20.6667 39.4197 20.3038 41.2389L19.6559 44.4868C19.4997 45.2699 19.9208 46.0537 20.6599 46.3557C22.7783 47.2214 26.2354 47.6668 31 47.6668ZM31 49.3335C26.0377 49.3335 22.3912 48.8636 20.0295 47.8986C18.5512 47.2945 17.709 45.7269 18.0214 44.1608L18.6694 40.9128C19.1774 38.366 21.308 36.4618 23.8957 36.2417C25.7918 36.0804 28.1589 36.0002 31 36.0002C33.8411 36.0002 36.2082 36.0804 38.1043 36.2417C40.692 36.4618 42.8226 38.366 43.3306 40.9128L43.9786 44.1608C44.291 45.7269 43.4488 47.2945 41.9705 47.8986C39.6088 48.8636 35.9623 49.3335 31 49.3335ZM26 26.0002C26 28.7574 28.241 31.0002 31 31.0002C33.7573 31.0002 36 28.7592 36 26.0002C36 23.2429 33.759 21.0002 31 21.0002C28.2427 21.0002 26 23.2411 26 26.0002ZM24.3333 26.0002C24.3333 22.3204 27.3225 19.3335 31 19.3335C34.6798 19.3335 37.6667 22.3227 37.6667 26.0002C37.6667 29.6799 34.6775 32.6668 31 32.6668C27.3202 32.6668 24.3333 29.6776 24.3333 26.0002Z" fill="white"/>
</svg>
