<svg width="72" height="72" viewBox="0 0 72 72" fill="none" xmlns="http://www.w3.org/2000/svg">
<rect width="72" height="72" rx="16" fill="#3A5DD7"/>
<path d="M45.1667 36.0001C45.1667 31.8604 45.3347 27.4052 45.6706 22.634C45.7609 21.3526 46.2979 20.2031 47.123 19.3334H26.8333C25.1762 19.3334 23.8165 20.8251 23.4888 22.803C23.0346 25.544 22.6667 30.6366 22.6667 35.9939C22.6667 39.8222 22.8996 45.0331 23.3659 51.6223L24.3568 50.6314C25.257 49.7312 26.6899 49.6513 27.6847 50.4457L29.6519 52.0169C29.9565 52.2601 30.389 52.2597 30.6931 52.016L32.7677 50.3535C33.6829 49.6201 34.9849 49.6214 35.8985 50.3567L37.9588 52.0149C38.2625 52.2593 38.6949 52.2605 39 52.0179L41.1116 50.3387C42.0218 49.6148 43.311 49.6142 44.2219 50.3372L45.856 51.6343C45.3965 46.3868 45.1667 41.1754 45.1667 36.0001ZM51 17.6667C53.7614 17.6667 56 19.9053 56 22.6667V28.5001C56 29.8808 54.8807 31.0001 53.5 31.0001H50.1667C49.7064 31.0001 49.3333 30.627 49.3333 30.1667C49.3333 29.7065 49.7064 29.3334 50.1667 29.3334H53.5C53.9602 29.3334 54.3333 28.9603 54.3333 28.5001V22.6667C54.3333 20.8258 52.8409 19.3334 51 19.3334C49.0701 19.3334 47.4688 20.8259 47.3332 22.7511C46.9999 27.4846 46.8333 31.901 46.8333 36.0001C46.8333 41.1267 47.061 46.2896 47.5163 51.4888C47.5967 52.4058 46.9184 53.2143 46.0014 53.2946C45.5767 53.3318 45.1538 53.2048 44.8199 52.9397L43.1857 51.6427C42.8821 51.4017 42.4524 51.4019 42.149 51.6432L40.0374 53.3224C39.1222 54.0502 37.8248 54.0464 36.9139 53.3133L34.8536 51.6551C34.549 51.41 34.115 51.4096 33.81 51.654L31.7353 53.3166C30.8229 54.0478 29.5255 54.0489 28.6119 53.3192L26.6446 51.748C26.313 51.4832 25.8354 51.5099 25.5353 51.8099L24.5444 52.8009C23.8935 53.4517 22.8383 53.4517 22.1874 52.8009C21.9036 52.517 21.7317 52.1404 21.7034 51.74C21.2346 45.1149 21 39.8677 21 35.9939C21 30.5501 21.3744 25.3677 21.8445 22.5305C22.2935 19.8211 24.2571 17.6667 26.8333 17.6667H51ZM26.8333 29.3334C26.3731 29.3334 26 28.9603 26 28.5001C26 28.0398 26.3731 27.6667 26.8333 27.6667H35.1655C35.6257 27.6667 35.9988 28.0398 35.9988 28.5001C35.9988 28.9603 35.6257 29.3334 35.1655 29.3334H26.8333ZM38.5 29.3334C38.0398 29.3334 37.6667 28.9603 37.6667 28.5001C37.6667 28.0398 38.0398 27.6667 38.5 27.6667H41.8322C42.2924 27.6667 42.6655 28.0398 42.6655 28.5001C42.6655 28.9603 42.2924 29.3334 41.8322 29.3334H38.5ZM26.8333 34.3334C26.3731 34.3334 26 33.9603 26 33.5001C26 33.0398 26.3731 32.6667 26.8333 32.6667H35.1655C35.6257 32.6667 35.9988 33.0398 35.9988 33.5001C35.9988 33.9603 35.6257 34.3334 35.1655 34.3334H26.8333ZM38.5 34.3334C38.0398 34.3334 37.6667 33.9603 37.6667 33.5001C37.6667 33.0398 38.0398 32.6667 38.5 32.6667H41.8322C42.2924 32.6667 42.6655 33.0398 42.6655 33.5001C42.6655 33.9603 42.2924 34.3334 41.8322 34.3334H38.5ZM26.8333 39.3334C26.3731 39.3334 26 38.9603 26 38.5001C26 38.0398 26.3731 37.6667 26.8333 37.6667H35.1655C35.6257 37.6667 35.9988 38.0398 35.9988 38.5001C35.9988 38.9603 35.6257 39.3334 35.1655 39.3334H26.8333ZM38.5 39.3334C38.0398 39.3334 37.6667 38.9603 37.6667 38.5001C37.6667 38.0398 38.0398 37.6667 38.5 37.6667H41.8322C42.2924 37.6667 42.6655 38.0398 42.6655 38.5001C42.6655 38.9603 42.2924 39.3334 41.8322 39.3334H38.5ZM26.8333 44.3334C26.3731 44.3334 26 43.9603 26 43.5001C26 43.0398 26.3731 42.6667 26.8333 42.6667H35.1655C35.6257 42.6667 35.9988 43.0398 35.9988 43.5001C35.9988 43.9603 35.6257 44.3334 35.1655 44.3334H26.8333ZM38.5 44.3334C38.0398 44.3334 37.6667 43.9603 37.6667 43.5001C37.6667 43.0398 38.0398 42.6667 38.5 42.6667H41.8322C42.2924 42.6667 42.6655 43.0398 42.6655 43.5001C42.6655 43.9603 42.2924 44.3334 41.8322 44.3334H38.5Z" fill="white"/>
</svg>
