<svg width="72" height="72" viewBox="0 0 72 72" fill="none" xmlns="http://www.w3.org/2000/svg">
<rect width="72" height="72" rx="16" fill="#3A5DD7"/>
<g clip-path="url(#clip0_166_3305)">
<path d="M23.6427 21.5014C21.5841 21.6464 19.9418 23.2766 19.7815 25.334C19.4827 29.168 19.3334 32.7235 19.3334 35.9999C19.3334 39.2758 19.4826 42.8306 19.7813 46.6638C19.9417 48.7218 21.5848 50.3522 23.6439 50.4966C28.4305 50.8322 32.5676 50.9999 36.0539 50.9999C39.5303 50.9999 43.6321 50.8332 48.3579 50.4995C50.4162 50.3541 52.0581 48.7241 52.2185 46.6669C52.5173 42.8325 52.6667 39.2767 52.6667 35.9999C52.6667 32.7239 52.5174 29.169 52.2187 25.3356C52.0583 23.2777 50.4155 21.6474 48.3564 21.5029C43.5792 21.1675 39.4509 20.9999 35.9729 20.9999C32.4999 20.9999 28.3894 21.167 23.6427 21.5014ZM23.5256 19.8389C28.3088 19.5019 32.4574 19.3333 35.9729 19.3333C39.4934 19.3333 43.6596 19.5023 48.4731 19.8403C51.3558 20.0427 53.6558 22.3251 53.8803 25.2061C54.1823 29.081 54.3334 32.6789 54.3334 35.9999C54.3334 39.3218 54.1822 42.9205 53.8801 46.7965C53.6556 49.6765 51.3569 51.9585 48.4753 52.162C43.7128 52.4983 39.5729 52.6666 36.0539 52.6666C32.5253 52.6666 28.3502 52.4974 23.5274 52.1592C20.6445 51.957 18.3442 49.6745 18.1197 46.7933C17.8178 42.9185 17.6667 39.3209 17.6667 35.9999C17.6667 32.6784 17.8178 29.0801 18.1199 25.2045C18.3443 22.3241 20.6435 20.0419 23.5256 19.8389ZM27.6667 51.8333C27.6667 51.373 28.0398 50.9999 28.5 50.9999C28.9603 50.9999 29.3334 51.373 29.3334 51.8333V53.4999C29.3334 54.8806 28.2141 55.9999 26.8334 55.9999H23.5C22.1193 55.9999 21 54.8806 21 53.4999V50.9999C21 50.5397 21.3731 50.1666 21.8334 50.1666C22.2936 50.1666 22.6667 50.5397 22.6667 50.9999V53.4999C22.6667 53.9602 23.0398 54.3333 23.5 54.3333H26.8334C27.2936 54.3333 27.6667 53.9602 27.6667 53.4999V51.8333ZM49.3334 50.9999C49.3334 50.5397 49.7065 50.1666 50.1667 50.1666C50.6269 50.1666 51 50.5397 51 50.9999V53.4999C51 54.8806 49.8807 55.9999 48.5 55.9999H45.1667C43.786 55.9999 42.6667 54.8806 42.6667 53.4999V51.8333C42.6667 51.373 43.0398 50.9999 43.5 50.9999C43.9603 50.9999 44.3334 51.373 44.3334 51.8333V53.4999C44.3334 53.9602 44.7065 54.3333 45.1667 54.3333H48.5C48.9603 54.3333 49.3334 53.9602 49.3334 53.4999V50.9999ZM42.6667 42.6666C38.9848 42.6666 36 39.6818 36 35.9999C36 32.318 38.9848 29.3333 42.6667 29.3333C46.3486 29.3333 49.3334 32.318 49.3334 35.9999C49.3334 39.6818 46.3486 42.6666 42.6667 42.6666ZM42.6667 40.9999C45.4281 40.9999 47.6667 38.7613 47.6667 35.9999C47.6667 33.2385 45.4281 30.9999 42.6667 30.9999C39.9053 30.9999 37.6667 33.2385 37.6667 35.9999C37.6667 38.7613 39.9053 40.9999 42.6667 40.9999ZM23.5 44.3333C23.0398 44.3333 22.6667 43.9602 22.6667 43.4999C22.6667 43.0397 23.0398 42.6666 23.5 42.6666H31.8334C32.2936 42.6666 32.6667 43.0397 32.6667 43.4999C32.6667 43.9602 32.2936 44.3333 31.8334 44.3333H23.5ZM23.5 29.3333C23.0398 29.3333 22.6667 28.9602 22.6667 28.4999C22.6667 28.0397 23.0398 27.6666 23.5 27.6666H31.8334C32.2936 27.6666 32.6667 28.0397 32.6667 28.4999C32.6667 28.9602 32.2936 29.3333 31.8334 29.3333H23.5ZM24.3334 26.8333C24.3334 26.373 24.7065 25.9999 25.1667 25.9999C25.6269 25.9999 26 26.373 26 26.8333V45.1666C26 45.6268 25.6269 45.9999 25.1667 45.9999C24.7065 45.9999 24.3334 45.6268 24.3334 45.1666V26.8333Z" fill="white"/>
</g>
<defs>
<clipPath id="clip0_166_3305">
<rect width="40" height="40" fill="white" transform="translate(16 16)"/>
</clipPath>
</defs>
</svg>
