<svg width="72" height="72" viewBox="0 0 72 72" fill="none" xmlns="http://www.w3.org/2000/svg">
<rect width="72" height="72" rx="16" fill="#3A5DD7"/>
<path d="M25.8111 24.5077C24.8978 23.6061 24.3333 22.3685 24.3333 21C24.3333 18.2322 26.6421 16 29.4763 16C32.0336 16 34.3309 17.7906 34.3309 21.0529C34.3309 22.3527 34.8542 23.2407 36 23.7661C37.1458 23.2407 37.669 22.3527 37.669 21.0529C37.669 17.7906 39.9663 16 42.5237 16C45.3579 16 47.6666 18.2322 47.6666 21C47.6666 22.3659 47.1044 23.6013 46.1943 24.5024C47.0328 24.5272 47.8556 24.5554 48.6626 24.587C50.8988 24.6743 52.6666 26.5125 52.6666 28.7504V33.0163C52.6666 33.8194 52.584 34.2473 52.3455 34.6932C52.1226 35.11 51.7905 35.4421 51.3737 35.6651C51.2537 35.7292 51.135 35.7821 51.0099 35.8251C51.014 36.3696 51.0139 37.1396 51.0106 38.1419C51.0096 38.4611 51.0083 38.7883 51.0065 39.2098C50.9996 40.8052 51 40.7087 51 41.0149C51 43.9421 50.9075 46.3881 50.7216 48.356C50.5329 50.3532 48.9477 51.9325 46.9498 52.1138C42.6681 52.5021 39.0332 52.6966 36.0425 52.6966C33.0465 52.6966 29.3842 52.5014 25.0529 52.1117C23.0536 51.9317 21.4668 50.3519 21.2781 48.3533C21.0924 46.3859 21 43.9408 21 41.0149C21 40.7053 21.0003 40.7798 20.9933 39.2067C20.9915 38.7864 20.9902 38.4613 20.9891 38.144C20.9858 37.1404 20.9857 36.3698 20.9898 35.8243C20.8648 35.7813 20.7462 35.7284 20.6263 35.6643C20.2094 35.4414 19.8773 35.1092 19.6544 34.6924C19.4159 34.2465 19.3333 33.8186 19.3333 33.0155L19.3333 28.755C19.3333 26.5159 21.103 24.6771 23.3405 24.5914C24.1516 24.5603 24.9751 24.5324 25.8111 24.5077ZM37.6718 51.0117C37.6684 50.9811 37.6666 50.95 37.6666 50.9185V26.0327C37.1656 26.0308 36.66 26.0299 36.1499 26.0299C35.539 26.0299 34.9334 26.0313 34.3333 26.034V50.9185C34.3333 50.9494 34.3316 50.9798 34.3284 51.0098C34.9231 51.0232 35.4945 51.0299 36.0425 51.0299C36.565 51.0299 37.1081 51.0238 37.6718 51.0117ZM39.3323 50.9606C41.5441 50.8736 44.0333 50.7048 46.7992 50.4539C47.998 50.3452 48.9491 49.3976 49.0623 48.1992C49.2427 46.2894 49.3333 43.8936 49.3333 41.0149C49.3333 40.7049 49.3329 40.8042 49.3398 39.2026C49.3417 38.7816 49.3429 38.4549 49.344 38.1365C49.3469 37.2288 49.3473 36.5109 49.3443 35.9862H39.3333V50.9185C39.3333 50.9326 39.333 50.9467 39.3323 50.9606ZM39.3333 34.3195H49.6967C50.2483 34.3195 50.4162 34.2871 50.5877 34.1954C50.7141 34.1278 50.8083 34.0336 50.8759 33.9072C50.9675 33.7358 51 33.5678 51 33.0163V28.7504C51 27.4077 49.9393 26.3048 48.5976 26.2524C45.7139 26.1397 42.6257 26.0698 39.3333 26.0427V34.3195ZM32.6675 50.9575C32.6669 50.9446 32.6666 50.9316 32.6666 50.9185V35.9854H22.6555C22.6524 36.511 22.6527 37.2294 22.6558 38.1385C22.6568 38.4551 22.6581 38.7796 22.66 39.1993C22.667 40.7786 22.6666 40.7014 22.6666 41.0149C22.6666 43.8924 22.7572 46.2873 22.9374 48.1967C23.0506 49.3958 24.0027 50.3438 25.2023 50.4517C27.971 50.7009 30.4597 50.8694 32.6675 50.9575ZM32.6666 26.0452C29.4151 26.0743 26.3276 26.1448 23.4043 26.2568C22.0618 26.3082 21 27.4115 21 28.755L21 33.0155C21 33.567 21.0324 33.735 21.1241 33.9064C21.1917 34.0328 21.2859 34.127 21.4123 34.1946C21.5837 34.2863 21.7517 34.3187 22.3032 34.3187H32.6666V26.0452ZM42.5237 24.3333C44.4498 24.3333 46 22.8345 46 21C46 19.1655 44.4498 17.6667 42.5237 17.6667C40.8087 17.6667 39.3357 18.8147 39.3357 21.0529C39.3357 22.3996 38.9212 23.4851 38.1256 24.2926C40.0533 24.3198 41.5196 24.3333 42.5237 24.3333ZM32.6643 21.0529C32.6643 18.8147 31.1913 17.6667 29.4763 17.6667C27.5502 17.6667 26 19.1655 26 21C26 22.8345 27.5502 24.3333 29.4763 24.3333C30.4803 24.3333 31.9466 24.3198 33.8744 24.2926C33.0788 23.4851 32.6643 22.3996 32.6643 21.0529Z" fill="white"/>
</svg>
