<svg width="64" height="65" viewBox="0 0 64 65" fill="none" xmlns="http://www.w3.org/2000/svg">
<g id="icon">
<g id="16-Credit Card">
<path id="Vector" d="M57.3333 1.83337H6.66667C4.89921 1.83549 3.20474 2.53855 1.95496 3.78833C0.705176 5.03812 0.00211714 6.73258 0 8.50004L0 40.5C0.00211714 42.2675 0.705176 43.962 1.95496 45.2117C3.20474 46.4615 4.89921 47.1646 6.66667 47.1667H17.3333C17.687 47.1667 18.0261 47.0262 18.2761 46.7762C18.5262 46.5261 18.6667 46.187 18.6667 45.8334C18.6667 45.4798 18.5262 45.1406 18.2761 44.8906C18.0261 44.6405 17.687 44.5 17.3333 44.5H6.66667C5.6058 44.5 4.58839 44.0786 3.83824 43.3285C3.08809 42.5783 2.66667 41.5609 2.66667 40.5V8.50004C2.66667 7.43917 3.08809 6.42176 3.83824 5.67161C4.58839 4.92147 5.6058 4.50004 6.66667 4.50004H57.3333C58.3942 4.50004 59.4116 4.92147 60.1618 5.67161C60.9119 6.42176 61.3333 7.43917 61.3333 8.50004V41.8334C61.3331 46.2022 59.8004 50.4325 57.0023 53.7877C54.2043 57.1428 50.318 59.4103 46.0202 60.1952C41.7225 60.98 37.2856 60.2326 33.4822 58.0831C29.6788 55.9335 26.7499 52.518 25.2054 48.4313C23.6609 44.3446 23.5988 39.8457 25.0298 35.7179C26.4608 31.5901 29.2943 28.095 33.0369 25.8412C36.7795 23.5874 41.194 22.7178 45.5118 23.3836C49.8295 24.0495 53.777 26.2088 56.6667 29.4854C56.9006 29.7506 57.2303 29.912 57.5832 29.9341C57.9362 29.9563 58.2835 29.8373 58.5487 29.6034C58.8139 29.3695 58.9753 29.0398 58.9974 28.6868C59.0196 28.3339 58.9006 27.9866 58.6667 27.7214C55.3642 23.9767 50.8528 21.509 45.9182 20.748C40.9837 19.987 35.9385 20.9809 31.6612 23.5566C27.384 26.1324 24.1457 30.1268 22.5102 34.8442C20.8748 39.5617 20.9458 44.7034 22.7109 49.3739C24.476 54.0444 27.8234 57.9478 32.1702 60.4045C36.5169 62.8611 41.5877 63.7153 46.4993 62.8183C51.411 61.9213 55.8525 59.3299 59.0503 55.4954C62.2481 51.6609 63.9997 46.8263 64 41.8334V8.50004C63.9979 6.73258 63.2948 5.03812 62.045 3.78833C60.7953 2.53855 59.1008 1.83549 57.3333 1.83337Z" fill="#3A5DD7"/>
<path id="Vector_2" d="M8.00002 39.1667H16C16.3536 39.1667 16.6928 39.0262 16.9428 38.7761C17.1929 38.5261 17.3334 38.187 17.3334 37.8333C17.3334 37.4797 17.1929 37.1406 16.9428 36.8905C16.6928 36.6405 16.3536 36.5 16 36.5H8.00002C7.6464 36.5 7.30726 36.6405 7.05721 36.8905C6.80716 37.1406 6.66669 37.4797 6.66669 37.8333C6.66669 38.187 6.80716 38.5261 7.05721 38.7761C7.30726 39.0262 7.6464 39.1667 8.00002 39.1667Z" fill="#3A5DD7"/>
<path id="Vector_3" d="M12 19.1667C13.0549 19.1667 14.086 18.8539 14.9631 18.2678C15.8401 17.6818 16.5237 16.8489 16.9274 15.8743C17.331 14.8998 17.4367 13.8274 17.2309 12.7929C17.0251 11.7583 16.5171 10.808 15.7713 10.0621C15.0254 9.31622 14.0751 8.80827 13.0405 8.60248C12.0059 8.39669 10.9336 8.50231 9.95904 8.90598C8.9845 9.30965 8.15155 9.99323 7.56552 10.8703C6.97948 11.7474 6.66669 12.7785 6.66669 13.8333C6.66669 15.2478 7.22859 16.6044 8.22878 17.6046C9.22898 18.6048 10.5855 19.1667 12 19.1667ZM12 11.1667C12.5274 11.1667 13.043 11.3231 13.4815 11.6161C13.9201 11.9091 14.2619 12.3256 14.4637 12.8128C14.6655 13.3001 14.7183 13.8363 14.6154 14.3536C14.5126 14.8709 14.2586 15.346 13.8856 15.719C13.5127 16.0919 13.0375 16.3459 12.5203 16.4488C12.003 16.5517 11.4668 16.4988 10.9795 16.297C10.4923 16.0952 10.0758 15.7534 9.78277 15.3149C9.48975 14.8763 9.33335 14.3608 9.33335 13.8333C9.33335 13.1261 9.6143 12.4478 10.1144 11.9477C10.6145 11.4476 11.2928 11.1667 12 11.1667Z" fill="#3A5DD7"/>
<path id="Vector_4" d="M54.6667 17.8334C55.3739 17.8334 56.0522 17.5524 56.5523 17.0523C57.0524 16.5522 57.3333 15.874 57.3333 15.1667V12.5C57.3333 11.7928 57.0524 11.1145 56.5523 10.6144C56.0522 10.1143 55.3739 9.83337 54.6667 9.83337H46.6667C45.9594 9.83337 45.2811 10.1143 44.781 10.6144C44.2809 11.1145 44 11.7928 44 12.5V15.1667C44 15.874 44.2809 16.5522 44.781 17.0523C45.2811 17.5524 45.9594 17.8334 46.6667 17.8334H54.6667ZM46.6667 12.5H54.6667V15.1667H46.6667V12.5Z" fill="#3A5DD7"/>
<path id="Vector_5" d="M8.00002 32.5H12C12.3536 32.5 12.6928 32.3596 12.9428 32.1095C13.1929 31.8595 13.3334 31.5203 13.3334 31.1667C13.3334 30.8131 13.1929 30.4739 12.9428 30.2239C12.6928 29.9738 12.3536 29.8334 12 29.8334H8.00002C7.6464 29.8334 7.30726 29.9738 7.05721 30.2239C6.80716 30.4739 6.66669 30.8131 6.66669 31.1667C6.66669 31.5203 6.80716 31.8595 7.05721 32.1095C7.30726 32.3596 7.6464 32.5 8.00002 32.5Z" fill="#3A5DD7"/>
<path id="Vector_6" d="M18.6667 29.8334H17.3333C16.9797 29.8334 16.6406 29.9738 16.3905 30.2239C16.1405 30.4739 16 30.8131 16 31.1667C16 31.5203 16.1405 31.8595 16.3905 32.1095C16.6406 32.3596 16.9797 32.5 17.3333 32.5H18.6667C19.0203 32.5 19.3594 32.3596 19.6095 32.1095C19.8595 31.8595 20 31.5203 20 31.1667C20 30.8131 19.8595 30.4739 19.6095 30.2239C19.3594 29.9738 19.0203 29.8334 18.6667 29.8334Z" fill="#3A5DD7"/>
<path id="Vector_7" d="M52.3906 34.224L38.6666 47.948L34.276 43.5573C34.0245 43.3145 33.6877 43.1801 33.3381 43.1831C32.9885 43.1862 32.6541 43.3264 32.4069 43.5736C32.1597 43.8208 32.0194 44.1552 32.0164 44.5048C32.0134 44.8544 32.1478 45.1912 32.3906 45.4427L37.724 50.776C37.974 51.026 38.3131 51.1664 38.6666 51.1664C39.0202 51.1664 39.3593 51.026 39.6093 50.776L54.276 36.1093C54.5189 35.8579 54.6532 35.5211 54.6502 35.1715C54.6472 34.8219 54.5069 34.4875 54.2597 34.2403C54.0125 33.993 53.6781 33.8528 53.3285 33.8498C52.9789 33.8467 52.6421 33.9811 52.3906 34.224Z" fill="#3A5DD7"/>
</g>
</g>
</svg>
