<svg width="64" height="65" viewBox="0 0 64 65" fill="none" xmlns="http://www.w3.org/2000/svg">
<g id="icon">
<g id="4-Credit Card">
<path id="Vector" d="M56 20.5H1.33337V16.5C1.33337 15.0855 1.89528 13.7289 2.89547 12.7287C3.89567 11.7285 5.25222 11.1666 6.66671 11.1666H57.3334C58.7479 11.1666 60.1044 11.7285 61.1046 12.7287C62.1048 13.7289 62.6667 15.0855 62.6667 16.5V24.5" stroke="#3A5DD7" stroke-width="2" stroke-linecap="round" stroke-linejoin="round"/>
<path id="Vector_2" d="M1.33337 29.8333H62.6667V48.4999C62.6667 49.9144 62.1048 51.271 61.1046 52.2712C60.1044 53.2713 58.7479 53.8333 57.3334 53.8333H6.66671C5.25222 53.8333 3.89567 53.2713 2.89547 52.2712C1.89528 51.271 1.33337 49.9144 1.33337 48.4999V35.1666" stroke="#3A5DD7" stroke-width="2" stroke-linecap="round" stroke-linejoin="round"/>
<path id="Vector_3" d="M9.33337 39.1666H12" stroke="#3A5DD7" stroke-width="2" stroke-linecap="round" stroke-linejoin="round"/>
<path id="Vector_4" d="M17.3334 39.1666H26.6667" stroke="#3A5DD7" stroke-width="2" stroke-linecap="round" stroke-linejoin="round"/>
<path id="Vector_5" d="M9.33337 44.5H26.6667" stroke="#3A5DD7" stroke-width="2" stroke-linecap="round" stroke-linejoin="round"/>
<path id="Vector_6" d="M50.6667 45.8333C52.8759 45.8333 54.6667 44.0424 54.6667 41.8333C54.6667 39.6241 52.8759 37.8333 50.6667 37.8333C48.4576 37.8333 46.6667 39.6241 46.6667 41.8333C46.6667 44.0424 48.4576 45.8333 50.6667 45.8333Z" stroke="#3A5DD7" stroke-width="2" stroke-linecap="round" stroke-linejoin="round"/>
</g>
</g>
</svg>
