<svg width="64" height="64" viewBox="0 0 64 64" fill="none" xmlns="http://www.w3.org/2000/svg">
<path d="M35.9491 10.731L47.2519 21.386L56.8127 22.4517L48.8633 13.6191C47.8217 12.4618 46.4079 11.7055 44.8671 11.4815C42.1824 11.0912 39.2094 10.8408 35.9491 10.731ZM43.3085 21.3333L32.0003 10.6733L20.6929 21.3333H43.3085ZM35.0852 53.463C41.4244 46.7004 46.0273 41.4864 48.8863 37.8316C51.9019 33.9766 54.8316 29.7765 57.675 25.231L47.5089 24.0978L35.0852 53.463ZM44.6548 24H19.3466L32 53.9112L44.6548 24ZM28.0516 10.731C24.791 10.8408 21.8178 11.0912 19.1329 11.4815C17.5921 11.7055 16.1782 12.4617 15.1367 13.6191L7.18545 22.4537L16.7375 21.3974L28.0516 10.731ZM28.9429 53.529L16.4964 24.107L6.34987 25.229C9.24993 29.7794 12.1752 33.9854 15.1255 37.8468C17.9234 41.5089 22.5321 46.7406 28.9429 53.529ZM18.7493 8.84258C22.6176 8.28025 27.0337 8 32 8C36.9662 8 41.3824 8.28025 45.2507 8.84259C47.4079 9.15618 49.3872 10.2149 50.8455 11.8352L59.6568 21.6255C60.8492 22.9505 61.021 24.9047 60.078 26.4174C57.1418 31.1276 54.1115 35.48 50.9866 39.4746C47.7544 43.6065 42.3946 49.6275 34.8969 57.5523C33.3786 59.1571 30.8469 59.2272 29.2422 57.7089C29.1685 57.638 29.1685 57.638 29.0973 57.5647C21.531 49.6352 16.1714 43.6082 13.0065 39.4658C9.95923 35.4773 6.94192 31.1326 3.95425 26.4315C2.9912 24.9162 3.15588 22.9448 4.357 21.6102L13.1545 11.8352C14.6128 10.2149 16.5921 9.15616 18.7493 8.84258Z" fill="#3A5DD7"/>
</svg>
