<?xml version="1.0" encoding="utf-8"?><svg viewBox="0 0 32 32" xmlns="http://www.w3.org/2000/svg" xmlns:xlink="http://www.w3.org/1999/xlink"><style>:root>svg{display:none}:root>svg:target{display:block}</style><svg viewBox="0 0 32 32" id="ic-email" xmlns="http://www.w3.org/2000/svg"><path d="M26.667 5.333H8A2.67 2.67 0 005.333 8v6.667H8v-4l8.533 6.4a1.335 1.335 0 001.6 0l8.534-6.4v12H16v2.666h10.667a2.67 2.67 0 002.666-2.666V8a2.67 2.67 0 00-2.666-2.667zm-9.334 9L8.888 8h16.89l-8.445 6.333z"/><path d="M2.667 16H12v2.667H2.667V16zm2.666 4h8v2.667h-8V20zm4 4h5.334v2.667H9.333V24z"/></svg><svg viewBox="0 0 20 20" id="ic-moon" xmlns="http://www.w3.org/2000/svg"><g clip-path="url(#ba)"><path d="M17.538 14.282c-3.937.75-7.571-2.26-7.571-6.258 0-2.3 1.232-4.407 3.225-5.541 1.01-.575.755-2.104-.391-2.316A10.084 10.084 0 0010.975 0c-5.521 0-10 4.474-10 10 0 5.52 4.474 10 10 10a9.982 9.982 0 007.767-3.703c.736-.907-.067-2.232-1.204-2.015zm-6.563 4.468a8.75 8.75 0 111.599-17.354 7.618 7.618 0 00-3.857 6.628c0 4.79 4.36 8.38 9.055 7.486a8.733 8.733 0 01-6.797 3.24z"/></g><defs><clipPath id="ba"><path d="M0 0h20v20H0z"/></clipPath></defs></svg><svg viewBox="0 0 20 20" id="ic-sun" xmlns="http://www.w3.org/2000/svg"><g clip-path="url(#ca)"><path d="M10 15.333a5.333 5.333 0 110-10.666 5.333 5.333 0 010 10.666zM10 14a4 4 0 100-8 4 4 0 000 8zm-.667 4a.667.667 0 111.334 0v1.333a.667.667 0 01-1.334 0V18zm0-17.333a.667.667 0 011.334 0V2a.667.667 0 01-1.334 0V.667zm-3.91 15.928a.667.667 0 111.154.667l-.666 1.154a.667.667 0 01-1.155-.666l.667-1.155zm8.666-15.011a.667.667 0 011.155.666l-.667 1.155a.667.667 0 01-1.154-.667l.666-1.154zM2.74 13.423a.667.667 0 01.666 1.154l-1.155.667a.667.667 0 11-.666-1.155l1.154-.666zm15.01-8.667a.667.667 0 01.667 1.155l-1.154.666a.667.667 0 11-.667-1.154l1.155-.667zM2 9.333a.667.667 0 010 1.334H.667a.667.667 0 010-1.334H2zm17.333 0a.667.667 0 110 1.334H18a.667.667 0 010-1.334h1.333zM3.405 5.423a.667.667 0 01-.667 1.154l-1.154-.666a.667.667 0 11.666-1.155l1.155.667zm15.011 8.666a.667.667 0 01-.666 1.155l-1.155-.667a.667.667 0 01.667-1.154l1.154.666zM6.577 2.74a.667.667 0 11-1.154.666L4.756 2.25a.667.667 0 011.155-.666l.666 1.154zm8.667 15.01a.667.667 0 11-1.155.667l-.666-1.154a.667.667 0 011.154-.667l.667 1.155z"/></g><defs><clipPath id="ca"><path d="M0 0h20v20H0z"/></clipPath></defs></svg><svg viewBox="0 0 32 32" id="ic-telegram" xmlns="http://www.w3.org/2000/svg"><path d="M27.932 7.769l-3.622 17.08c-.273 1.205-.986 1.505-1.998.937l-5.519-4.066-2.663 2.56c-.294.296-.54.542-1.109.542l.397-5.62L23.645 9.96c.445-.397-.096-.616-.69-.22L10.31 17.702l-5.443-1.704c-1.184-.37-1.205-1.184.247-1.752l21.29-8.203c.986-.37 1.85.22 1.528 1.726z"/></svg><svg viewBox="0 0 32 32" id="ic-whatsapp" xmlns="http://www.w3.org/2000/svg"><path d="M24.405 7.487A11.804 11.804 0 0015.995 4C9.438 4 4.102 9.336 4.102 15.893c0 2.095.546 4.14 1.585 5.946L4 28l6.305-1.655a11.855 11.855 0 005.684 1.446h.006C22.546 27.791 28 22.455 28 15.898c0-3.177-1.35-6.16-3.595-8.41zm-8.41 18.3a9.868 9.868 0 01-5.036-1.376l-.359-.215-3.74.98.997-3.647-.236-.375a9.852 9.852 0 01-1.51-5.261c0-5.448 4.435-9.884 9.889-9.884a9.797 9.797 0 016.986 2.898c1.864 1.87 3.01 4.35 3.005 6.991 0 5.454-4.548 9.89-9.996 9.89zm5.421-7.403c-.295-.15-1.757-.868-2.03-.964-.273-.102-.472-.15-.67.15-.198.3-.766.964-.943 1.168-.171.198-.348.224-.643.075-1.746-.874-2.892-1.56-4.044-3.536-.306-.525.305-.488.873-1.623.096-.199.048-.37-.027-.52-.075-.15-.67-1.613-.916-2.207-.241-.579-.487-.498-.67-.51-.171-.01-.37-.01-.567-.01a1.1 1.1 0 00-.793.37c-.274.3-1.04 1.018-1.04 2.48 0 1.463 1.066 2.877 1.211 3.075.15.198 2.095 3.198 5.079 4.49 1.885.814 2.625.883 3.568.744.573-.086 1.757-.718 2.003-1.414.247-.697.247-1.291.172-1.415-.07-.133-.268-.208-.563-.353z"/></svg></svg>